<svg xmlns="http://www.w3.org/2000/svg" width="100" height="100" viewBox="0 0 100 100" fill="none">
	<g clip-path="url(#clip0_162_50)">
		<mask id="mask0_162_50" style="mask-type:luminance" maskUnits="userSpaceOnUse" x="0" y="0" width="100" height="100">
			<path d="M50 0C22.3854 0 0 22.3854 0 50C0 77.6146 22.3854 100 50 100C77.6146 100 100 77.6146 100 50C100 22.3854 77.6146 0 50 0Z" fill="white" />
		</mask>
		<g mask="url(#mask0_162_50)">
			<path d="M110 -10H-10V110H110V-10Z" fill="#201C54" />
		</g>
		<mask id="mask1_162_50" style="mask-type:luminance" maskUnits="userSpaceOnUse" x="32" y="22" width="36" height="56">
			<path d="M32.1917 22.8625H67.7916V77.0626H32.1917V22.8625Z" fill="white" />
		</mask>
		<g mask="url(#mask1_162_50)">
			<path d="M65.2625 22.8635H34.7354C33.3364 22.8635 32.1917 24.0083 32.1917 25.4073V66.1104C32.1917 67.5094 33.3364 68.6541 34.7354 68.6541H40.5864C40.6708 68.8239 40.7562 68.951 40.7979 69.0791C40.926 69.3333 41.0531 69.5448 41.0948 69.7573C41.1375 69.9687 41.1802 70.2239 41.1802 70.5198C41.1802 71.0719 41.2229 71.6646 41.5614 72.2583C41.901 72.8094 42.4094 73.1489 42.876 73.4458C43.1302 73.6156 43.3427 73.7427 43.5114 73.8698C43.6396 73.9969 43.8083 74.251 43.9364 74.5062C44.2323 74.9719 44.5291 75.4812 45.1229 75.8198C45.6739 76.1594 46.3104 76.1594 46.8614 76.2021C47.1583 76.2021 47.4125 76.2021 47.625 76.2864C47.8364 76.3291 48.0489 76.4562 48.3031 76.5833C48.7698 76.8375 49.3208 77.1344 49.9989 77.1344C50.6771 77.1344 51.2291 76.8375 51.6948 76.5833C51.95 76.4562 52.1614 76.3291 52.3739 76.2864C52.5854 76.2437 52.8396 76.2021 53.1364 76.2021C53.6875 76.2021 54.2812 76.1594 54.875 75.8198C55.426 75.4812 55.7656 74.9719 56.0625 74.5062C56.2323 74.251 56.3594 74.0396 56.4864 73.8698C56.6135 73.7427 56.8677 73.5729 57.1219 73.4458C57.5885 73.1489 58.0979 72.8521 58.4364 72.2583C58.776 71.7073 58.776 71.0719 58.8177 70.5198C58.8177 70.2239 58.8177 69.9687 58.9031 69.7573C58.9458 69.5448 59.0729 69.3333 59.2 69.0791C59.2844 68.951 59.3698 68.7823 59.4114 68.6541H65.2625C66.6625 68.6541 67.8073 67.5094 67.8073 66.1104V25.4073C67.8073 24.0083 66.6625 22.8635 65.2625 22.8635ZM57.7156 68.2729C57.5458 68.5698 57.3771 68.9094 57.2489 69.3333C57.1219 69.7146 57.1219 70.1385 57.1219 70.4781C57.1219 70.8594 57.0802 71.1989 56.9948 71.4104C56.8677 71.6229 56.5708 71.7927 56.2323 72.0041C55.9354 72.1739 55.5958 72.3854 55.2989 72.6823C55.0021 72.9791 54.7906 73.3187 54.6208 73.6156C54.4083 73.9541 54.2385 74.251 54.0271 74.3781C53.8146 74.5062 53.476 74.5062 53.0937 74.5062C52.7552 74.5062 52.3312 74.5479 51.95 74.6333C51.5677 74.7177 51.2291 74.9302 50.8896 75.0989C50.55 75.2687 50.2531 75.4385 49.9989 75.4385C49.7448 75.4385 49.4479 75.2687 49.1083 75.0989C48.8114 74.9302 48.4729 74.7604 48.0489 74.6333C47.6666 74.5062 47.2427 74.5062 46.9041 74.5062C46.5219 74.5062 46.1833 74.4635 45.9708 74.3781C45.7594 74.251 45.5896 73.9541 45.3771 73.6156C45.2083 73.3187 44.9958 72.9791 44.6989 72.6823C44.4021 72.3854 44.0635 72.1739 43.7666 72.0041C43.4271 71.7927 43.1302 71.6229 43.0031 71.4104C42.876 71.1989 42.876 70.8594 42.876 70.4781C42.876 70.1385 42.8333 69.7146 42.7489 69.3333C42.6635 68.951 42.4521 68.6125 42.2823 68.2729C42.1125 67.9344 41.9427 67.6375 41.9427 67.3823C41.9427 67.1281 42.1125 66.8312 42.2823 66.4927C42.4521 66.1958 42.6219 65.8562 42.7489 65.4323C42.876 65.051 42.876 64.6271 42.876 64.2875C42.876 63.9062 42.9187 63.5666 43.0031 63.3552C43.1302 63.1427 43.4271 62.9729 43.7666 62.7614C44.0635 62.5916 44.4021 62.3791 44.6989 62.0823C44.9958 61.7854 45.2083 61.4469 45.3771 61.15C45.5896 60.8104 45.7594 60.5135 45.9708 60.3864C46.1833 60.2594 46.5219 60.2594 46.9041 60.2594C47.2427 60.2594 47.6666 60.2166 48.0489 60.1323C48.4302 60.0479 48.7698 59.8354 49.1083 59.6656C49.4479 59.4969 49.7448 59.3271 49.9989 59.3271C50.2531 59.3271 50.55 59.4969 50.8896 59.6656C51.1864 59.8354 51.525 60.0052 51.95 60.1323C52.3312 60.2594 52.7552 60.2594 53.0937 60.2594C53.476 60.2594 53.8146 60.3021 54.0271 60.3864C54.2385 60.5135 54.4083 60.8104 54.6208 61.15C54.7906 61.4469 55.0021 61.7854 55.2989 62.0823C55.5958 62.3791 55.9354 62.5916 56.2323 62.7614C56.5708 62.9729 56.8677 63.1427 56.9948 63.3552C57.1219 63.5666 57.1219 63.9062 57.1219 64.2875C57.1219 64.6271 57.1646 65.051 57.2489 65.4323C57.3344 65.8135 57.5458 66.1531 57.7156 66.4927C57.8854 66.8312 58.0552 67.1281 58.0552 67.3823C58.0552 67.6375 57.8854 67.9344 57.7156 68.2729ZM61.8708 52.5427H38.1271C37.6604 52.5427 37.2792 52.1614 37.2792 51.6948C37.2792 51.2281 37.6604 50.8469 38.1271 50.8469H61.8708C62.3375 50.8469 62.7187 51.2281 62.7187 51.6948C62.7187 52.1614 62.3375 52.5427 61.8708 52.5427ZM61.8708 48.3031H38.1271C37.6604 48.3031 37.2792 47.9208 37.2792 47.4552C37.2792 46.9885 37.6604 46.6073 38.1271 46.6073H61.8708C62.3375 46.6073 62.7187 46.9885 62.7187 47.4552C62.7187 47.9208 62.3375 48.3031 61.8708 48.3031ZM61.8708 44.0625H38.1271C37.6604 44.0625 37.2792 43.6812 37.2792 43.2146C37.2792 42.7489 37.6604 42.3666 38.1271 42.3666H61.8708C62.3375 42.3666 62.7187 42.7489 62.7187 43.2146C62.7187 43.6812 62.3375 44.0625 61.8708 44.0625ZM61.8708 39.8229H38.1271C37.6604 39.8229 37.2792 39.4416 37.2792 38.975C37.2792 38.5083 37.6604 38.1271 38.1271 38.1271H61.8708C62.3375 38.1271 62.7187 38.5083 62.7187 38.975C62.7187 39.4416 62.3375 39.8229 61.8708 39.8229ZM61.8708 35.5833H38.1271C37.6604 35.5833 37.2792 35.201 37.2792 34.7354C37.2792 34.2687 37.6604 33.8875 38.1271 33.8875H61.8708C62.3375 33.8875 62.7187 34.2687 62.7187 34.7354C62.7187 35.201 62.3375 35.5833 61.8708 35.5833ZM61.8708 31.3427H38.1271C37.6604 31.3427 37.2792 30.9614 37.2792 30.4948C37.2792 30.0292 37.6604 29.6469 38.1271 29.6469H61.8708C62.3375 29.6469 62.7187 30.0292 62.7187 30.4948C62.7187 30.9614 62.3375 31.3427 61.8708 31.3427Z" fill="#F0FFFF" />
		</g>
		<path d="M53.2219 64.2449L48.7271 68.7397L46.7771 66.7897C46.4376 66.4501 45.9292 66.4501 45.5896 66.7897C45.2501 67.1282 45.2501 67.6376 45.5896 67.9761L48.1334 70.5199C48.3032 70.6897 48.5157 70.7751 48.7271 70.7751C48.9396 70.7751 49.1511 70.6897 49.3209 70.5199L54.4084 65.4324C54.748 65.0928 54.748 64.5845 54.4084 64.2449C54.0699 63.9063 53.5605 63.9063 53.2219 64.2449Z" fill="#F0FFFF" />
	</g>
	<defs>
		<clipPath id="clip0_162_50">
			<rect width="100" height="100" fill="white" />
		</clipPath>
	</defs>
</svg>
